# xmcd CD database file
#
# Track frame offsets:
#	150
#	118823
#	142578
#	178622
#	208977
#
# Disc length: 3692 seconds
#
# Revision: 0
# Processed by: cddbd v1.4PL0 Copyright (c) Steve Scherf et al.
# Submitted via: CDex 1.50beta10
#
DISCID=440e6a05
DTITLE=Uma Silbey - Quiet Dawn
DYEAR=1999
DGENRE=New Age
TTITLE0=Quiet Dawn
TTITLE1=Tibetan Sunrise
TTITLE2=Jungle Dream
TTITLE3=Lament
TTITLE4=Contemplation
EXTD=YEAR: 1999
EXTT0=
EXTT1=
EXTT2=
EXTT3=
EXTT4=
PLAYORDER=
